:SAMPLES-PER-SECOND 30
:FULLY-SPECIFIED
:DEGREES
204
root  -5.646022286 39.24777714 3.379866833 10.71600342 -21.6190033 -4
lowerback  12.91959953 5.454460144 -4.432730198
upperback  4.532619953 6.426710129 -3.780050039
thorax  -2.474940062 3.154720068 -2.424770117
lowerneck  0.7537099719 -3.581850052 -11.86060047
upperneck  2.86977005 -5.32983017 17.95350075
head  1.515540004 -2.637209892 7.387559891
lclavicle  0 -9.442270133e-015 7.951389973e-016
lhumerus  -5.599339962 -21.32209969 77.229599
lradius  2.766093898e-031 -2.19489603e-031 141.5679932
lwrist  -7.062250077e-031 -1.765562519e-031 11.42179966
lhand  -1.496451383e-031 -27.76390076 20.11240005
lfingers  90 7.125020027 -90
lthumb  89.89689403 5.08795885 91.16245106
rclavicle  0 -9.442270133e-015 7.951389973e-016
rhumerus  16.52289963 1.346629977 -68.63600159
rradius  1.311168751e-031 3.278670545e-031 68.20310211
rwrist  1.412450015e-030 -0 -5.876820087
rhand  -7.920061211e-032 -33.2840004 9.303460121
rfingers  -90 -7.125020027 -90
rthumb  -92.93752616 -24.25625642 -97.11982154
rfemur  -11.61699963 13.14560032 8.71487999
rtibia  -0 0 46.23939896
rfoot  -4.593286028e-032 -16.06520081 5.078050137
rtoes  5.373923086 19.29304026 -105.8922705
lfemur  -45.5951004 -11.38189983 8.593359947
ltibia  -0 0 34.56689835
lfoot  -0 10.11219978 12.15699959
ltoes  -4.250644065 -19.5611806 -102.515957
205
root  -5.71140004 39.3728902 3.205755564 10.8690033 -22.46699524 -4.164993286
lowerback  13.01519966 5.080510139 -4.073239803
upperback  4.468820095 5.96762991 -3.825030088
thorax  -2.556790113 2.929990053 -2.609980106
lowerneck  0.4696460068 -3.182849884 -11.64319992
upperneck  3.153470039 -4.778649807 17.51049995
head  1.543159962 -2.346019983 7.216989994
lclavicle  0 -9.442270133e-015 7.951389973e-016
lhumerus  -4.889890194 -20.92239952 76.334198
lradius  2.781122267e-031 -2.175822367e-031 141.9620056
lwrist  -7.062250077e-031 -3.531125038e-031 11.23260021
lhand  -1.496451383e-031 -27.76390076 20.11240005
lfingers  90 7.125020027 -90
lthumb  89.89689403 5.08795885 91.16245106
rclavicle  0 -9.442270133e-015 7.951389973e-016
rhumerus  14.18939972 2.71668005 -69.5848999
rradius  1.149918837e-031 3.338642045e-031 70.99490356
rwrist  7.062250077e-031 -1.765562519e-031 -5.816899776
rhand  -7.920061211e-032 -33.2840004 9.303460121
rfingers  -90 -7.125020027 -90
rthumb  -92.93752616 -24.25625642 -97.11982154
rfemur  -12.19979954 13.05580044 8.368760109
rtibia  -0 0 45.48130035
rfoot  -5.208155706e-032 -17.55340004 0.5835229754
rtoes  5.373923086 19.29304026 -105.8922705
lfemur  -44.89929962 -10.65240002 8.552920341
ltibia  -0 0 35.19400024
lfoot  -0 9.366970062 9.674119949
ltoes  -4.250644065 -19.5611806 -102.515957
206
root  -5.770866514 39.45533272 3.022800093 10.87399292 -23.46499634 -4.315002441
lowerback  13.64570045 4.792329788 -3.655030012
upperback  4.198460102 5.578110218 -3.953439951
thorax  -3.134310007 2.739510059 -2.98725009
lowerneck  0.3343119919 -2.832329988 -11.39780045
upperneck  3.50338006 -4.317240238 17.14030075
head  1.582640052 -2.104599953 7.065380096
lclavicle  0 -9.442270133e-015 7.951389973e-016
lhumerus  -4.368450165 -20.64259911 75.40799713
lradius  2.792552185e-031 -2.161133113e-031 142.2640076
lwrist  -7.062250077e-031 -1.765562519e-031 10.76869965
lhand  -1.496451383e-031 -27.76390076 20.11240005
lfingers  90 7.125020027 -90
lthumb  89.89689403 5.08795885 91.16245106
rclavicle  0 -9.442270133e-015 7.951389973e-016
rhumerus  11.24370003 4.052410126 -70.58100128
rradius  9.645269512e-032 3.396841444e-031 74.14820099
rwrist  7.062250077e-031 -0 -5.748099804
rhand  -7.920061211e-032 -33.2840004 9.303460121
rfingers  -90 -7.125020027 -90
rthumb  -92.93752616 -24.25625642 -97.11982154
rfemur  -12.66460037 13.1218996 8.009539604
rtibia  -0 0 44.76499939
rfoot  -4.662056493e-032 -18.77809906 -3.416399956
rtoes  5.373923086 19.29304026 -105.8922705
lfemur  -44.13010025 -9.653140068 8.231599808
ltibia  -0 0 36.52780151
lfoot  -0 8.52161026 7.872729778
ltoes  -4.250644065 -19.5611806 -102.515957
207
root  -5.841444421 39.51822116 2.837533275 10.92599487 -24.54800415 -4.416000366
lowerback  13.74680042 4.576960087 -3.743540049
upperback  4.107359886 5.276810169 -3.797049999
thorax  -3.314719915 2.58920002 -2.739379883
lowerneck  0.2345779985 -2.453619957 -11.35449982
upperneck  3.692029953 -3.792840004 16.62540054
head  1.565500021 -1.841189981 6.904459953
lclavicle  0 -9.442270133e-015 7.951389973e-016
lhumerus  -3.71401 -20.09000015 74.91280365
lradius  2.798989292e-031 -2.152789581e-031 142.4349976
lwrist  -1.412450015e-030 1.765562519e-031 10.01200008
lhand  -1.496451383e-031 -27.76390076 20.11240005
lfingers  90 7.125020027 -90
lthumb  89.89689403 5.08795885 91.16245106
rclavicle  0 -9.442270133e-015 7.951389973e-016
rhumerus  8.669949532 5.505440235 -71.17620087
rradius  7.788653866e-032 3.444156319e-031 77.25740051
rwrist  0 -3.531125038e-031 -5.582670212
rhand  -7.920061211e-032 -33.2840004 9.303460121
rfingers  -90 -7.125020027 -90
rthumb  -92.93752616 -24.25625642 -97.11982154
rfemur  -13.22879982 13.43200016 7.598370075
rtibia  -0 0 44.12080002
rfoot  -0 -19.78030014 -7.484769821
rtoes  5.373923086 19.29304026 -105.8922705
lfemur  -43.5298996 -8.322680473 7.697720051
ltibia  -0 0 38.4803009
lfoot  -0 7.866280079 7.302390099
ltoes  -4.250644065 -19.5611806 -102.515957
208
root  -5.903088953 39.54688846 2.669822137 10.96200562 -25.05599976 -4.511001587
lowerback  13.40450001 4.080349922 -3.554039955
upperback  4.275459766 4.689499855 -3.604609966
thorax  -2.965120077 2.298160076 -2.509119987
lowerneck  0.05281059816 -2.025099993 -11.23859978
upperneck  3.715120077 -3.173330069 16.0366993
head  1.502599955 -1.530750036 6.707769871
lclavicle  0 -9.442270133e-015 7.951389973e-016
lhumerus  -2.691979885 -19.20709991 74.30979919
lradius  2.804278884e-031 -2.14589468e-031 142.576004
lwrist  -7.062250077e-031 -0 9.667169571
lhand  -1.496451383e-031 -27.76390076 20.11240005
lfingers  90 7.125020027 -90
lthumb  89.89689403 5.08795885 91.16245106
rclavicle  0 -9.442270133e-015 7.951389973e-016
rhumerus  6.759729862 6.988949776 -71.74440002
rradius  6.112799079e-032 3.477812662e-031 80.03119659
rwrist  1.412450015e-030 -3.531125038e-031 -5.252900124
rhand  -7.920061211e-032 -33.2840004 9.303460121
rfingers  -90 -7.125020027 -90
rthumb  -92.93752616 -24.25625642 -97.11982154
rfemur  -13.60550022 13.65030003 7.373569965
rtibia  -0 0 43.53450012
rfoot  -0 -20.29100037 -11.29629993
rtoes  5.373923086 19.29304026 -105.8922705
lfemur  -43.35589981 -7.194769859 7.171559811
ltibia  -0 0 40.95560074
lfoot  4.445872673e-032 6.874899864 6.009140015
ltoes  -4.250644065 -19.5611806 -102.515957
